<svg width="38" height="38" viewBox="0 0 38 38" fill="none" xmlns="http://www.w3.org/2000/svg">
<g clip-path="url(#clip0_28_162)">
<path d="M35.625 5.54163H2.375C1.74511 5.54163 1.14102 5.79185 0.695621 6.23725C0.250222 6.68265 0 7.28674 0 7.91663L0 30.0833C0 30.7132 0.250222 31.3173 0.695621 31.7627C1.14102 32.2081 1.74511 32.4583 2.375 32.4583H35.625C36.2549 32.4583 36.859 32.2081 37.3044 31.7627C37.7498 31.3173 38 30.7132 38 30.0833V7.91663C38 7.28674 37.7498 6.68265 37.3044 6.23725C36.859 5.79185 36.2549 5.54163 35.625 5.54163ZM35.1183 7.12496L19 19.5858L2.88167 7.12496H35.1183ZM1.58333 29.7587V8.12246L13.7829 17.5512L1.58333 29.7587ZM2.69958 30.875L15.0417 18.5329L18.5092 21.2166C18.6476 21.3232 18.8174 21.381 18.9921 21.381C19.1668 21.381 19.3366 21.3232 19.475 21.2166L22.9583 18.5329L35.3004 30.875H2.69958ZM36.4167 29.7587L24.2171 17.5512L36.4167 8.12246V29.7587Z" fill="black"/>
</g>
<defs>
<clipPath id="clip0_28_162">
<rect width="38" height="38" fill="white"/>
</clipPath>
</defs>
</svg>
